<?xml version="1.0" encoding="UTF-8" standalone="no"?>
<svg
   width="66.667"
   height="48.000244"
   version="1.1"
   viewBox="0 0 66.666999 48.000245"
   sodipodi:docname="fertilo_inc_ground_floor.svg"
   inkscape:version="1.3 (0e150ed6c4, 2023-07-21)"
   inkscape:export-filename="fertilo_inc_ground_floor_optimized.svg"
   inkscape:export-xdpi="96"
   inkscape:export-ydpi="96"
   id="svg1"
   xmlns:inkscape="http://www.inkscape.org/namespaces/inkscape"
   xmlns:sodipodi="http://sodipodi.sourceforge.net/DTD/sodipodi-0.dtd"
   xmlns="http://www.w3.org/2000/svg"
   xmlns:svg="http://www.w3.org/2000/svg">
  <style
     id="style11">tspan {   }&#10;text { fill-opacity:0.65; }&#10;path { fill-opacity:0.1; }&#10;.HALLWAY_7 {   }&#10;.HALLWAY_6 {   }&#10;.HALLWAY_5 {   }&#10;.HALLWAY_4 {   }&#10;.HALLWAY_3 {   }&#10;.HALLWAY_2 {   }&#10;.HALLWAY_1 {   }&#10;.CORRIDOR_1 {   }&#10;.OFFICE_WORK {   }&#10;.MEASUREMENT_CLOSET {   }&#10;.RECEPTION {   }&#10;.LAB {   }&#10;.CONSULTATION {   }&#10;.PHARMACY_2 {   }&#10;.PHARMACY_1 {   }&#10;</style>
  <defs
     id="defs1" />
  <sodipodi:namedview
     id="namedview1"
     pagecolor="#ffffff"
     bordercolor="#000000"
     borderopacity="0.25"
     inkscape:showpageshadow="2"
     inkscape:pageopacity="0.0"
     inkscape:pagecheckerboard="0"
     inkscape:deskcolor="#d1d1d1"
     inkscape:document-units="px"
     inkscape:zoom="11.313709"
     inkscape:cx="31.77561"
     inkscape:cy="25.32326"
     inkscape:window-width="1366"
     inkscape:window-height="713"
     inkscape:window-x="-8"
     inkscape:window-y="-8"
     inkscape:window-maximized="1"
     shape-rendering="auto"
     inkscape:current-layer="svg1" />
  <image
     x="0"
     y="0"
     width="66.666664"
     height="48"
     image-rendering="crisp-edges"
     preserveAspectRatio="none"
     href="fertilo_inc_ground_floor.png"
     style="display:inline;fill:none;stroke:none;stroke-width:0;stroke-dasharray:none"
     id="image1" />
  <path
     id="HALLWAY_7"
     d="m 54.58945,19.295531 -0.0066,7.942347 7.016239,9.1e-5 0.0064,-0.302287 0.264808,-0.005 -6.61e-4,-0.304138 0.268174,-0.0041 -0.0018,-6.714582 -0.260612,0.0034 -0.0075,-0.308889 -0.259464,-0.0053 -0.01232,-0.305974 z"
     style=""
     sodipodi:nodetypes="ccccccccccccc"
     class="HALLWAY_7"
     transform="matrix(0.98964576,0,0,0.87400244,0.64329399,3.1305701)" />
  <path
     id="HALLWAY_6"
     d="m 45.957885,19.295531 0.0025,7.951285 8.089923,-0.0044 0.0038,-7.946817 z"
     style=""
     sodipodi:nodetypes="ccccc"
     class="HALLWAY_6"
     transform="matrix(0.98964576,0,0,0.87400244,0.64329399,3.1305701)" />
  <path
     id="HALLWAY_5"
     d="m 37.343418,19.3 -0.0013,7.946816 8.103015,-0.01332 -0.008,-7.951286 z"
     style=""
     sodipodi:nodetypes="ccccc"
     class="HALLWAY_5"
     transform="matrix(0.98964576,0,0,0.87400244,0.64329399,3.1305701)" />
  <path
     id="HALLWAY_4"
     d="m 28.715792,19.3 0.0072,7.945283 8.085772,-0.01178 -1.53e-4,-7.937878 z"
     style=""
     sodipodi:nodetypes="ccccc"
     class="HALLWAY_4"
     transform="matrix(0.98964576,0,0,0.87400244,0.64329399,3.1305701)" />
  <path
     id="HALLWAY_3"
     d="m 20.097666,19.295531 -0.0053,7.946816 8.097052,-0.0088 0.0039,-7.942347 z"
     style=""
     sodipodi:nodetypes="ccccc"
     class="HALLWAY_3"
     transform="matrix(0.98964576,0,0,0.87400244,0.64329399,3.1305701)" />
  <path
     id="HALLWAY_2"
     d="m 11.470181,19.3 0.0065,7.937878 8.088472,-0.0044 0.0038,-7.937878 z"
     style=""
     sodipodi:nodetypes="ccccc"
     class="HALLWAY_2"
     transform="matrix(0.98964576,0,0,0.87400244,0.64329399,3.1305701)" />
  <path
     id="HALLWAY_1"
     d="m 3.3886874,19.912305 0.00518,6.708798 0.2653457,0.0091 -0.00317,0.30324 0.2725274,0.0031 0.00383,0.30668 7.0057775,-0.0097 0.0041,-7.937878 -7.0093401,0.0099 -0.0082,0.296533 -0.2681589,0.0024 0.00298,0.29633 z"
     style=""
     sodipodi:nodetypes="ccccccccccccc"
     class="HALLWAY_1"
     transform="matrix(0.98964576,0,0,0.87400244,0.64329399,3.1305701)" />
  <path
     id="CORRIDOR_1"
     d="m 31.192364,28.531898 0.0063,6.93268 0.262964,0.0033 0.0045,0.270023 0.264474,-8.42e-4 -6e-5,0.270374 2.672976,-0.0038 0.0012,-0.261038 0.267725,-0.004 9.5e-4,-0.273824 0.259919,3.37e-4 0.0015,-6.929293 -0.265763,-0.008 0.0044,-0.264532 -0.267048,-0.0029 -0.008,-0.271461 -2.672076,0.0048 0.005,0.265002 -0.272143,0.0049 0.0066,0.26521 z"
     style=""
     sodipodi:nodetypes="ccccccccccccccccccccc"
     class="CORRIDOR_1" />
  <path
     id="PHARMACY_1"
     d="m 21.330589,37.328541 -0.261614,-2.77e-4 -0.0055,4.273722 0.269207,3.01e-4 -4.74e-4,0.265779 5.867275,-0.0022 10e-4,-0.260347 0.266811,-0.0041 -5.23e-4,-0.797377 0.0028,-2.672384 -0.0056,-0.799323 -0.261111,7.12e-4 -0.0029,-0.273917 -5.868168,0.0018 z"
     style=""
     inkscape:label="PHARMACY_1"
     sodipodi:nodetypes="ccccccccccccccc"
     class="PHARMACY_1" />
  <path
     id="PHARMACY_2"
     d="m 38.933333,28.527344 -0.0029,4.543377 0.264625,0.0037 -0.0016,0.262949 4.810859,-0.0033 -0.0042,-0.26314 0.262402,-0.002 0.0013,-4.53433 -0.258945,4.65e-4 -0.0066,-0.269574 -4.803201,-0.0026 0.0041,0.270579 z"
     style=""
     sodipodi:nodetypes="ccccccccccccc"
     class="PHARMACY_2 " />
  <path
     id="RECEPTION"
     d="m 29.329003,37.067186 0.0012,0.261926 -0.267166,-0.0027 -0.0012,0.273953 -0.262046,0.0012 -0.0036,8.003009 0.265054,-0.0018 0.0027,0.263732 0.266284,0.0054 -0.0022,0.266736 7.479411,4.69e-4 -0.0081,-0.271555 0.269595,2.88e-4 -0.0022,-0.26525 0.272287,9.1e-5 v -8.000589 l -0.271333,-0.0066 0.0066,-0.267341 -0.272287,0.0039 V 37.06742 Z"
     style=""
     sodipodi:nodetypes="ccccccccccccccccccccc"
     class="RECEPTION" />
  <path
     id="MEASUREMENT_CLOSET"
     d="m 38.931761,37.059225 -0.0019,0.273438 -0.268419,-0.0017 7.91e-4,0.801996 0.0038,2.671451 -0.0021,0.801021 0.265052,-0.0038 0.0033,0.265935 4.005329,0.0092 0.0033,-0.267213 0.26518,-0.0043 -0.0046,-0.796802 -7.44e-4,-2.675713 -0.0012,-0.805089 -0.261208,-0.0044 -0.0022,-0.261347 z"
     style=""
     sodipodi:nodetypes="ccccccccccccccccc"
     class="MEASUREMENT_CLOSET" />
  <path
     id="LAB"
     d="m 21.860417,28.26172 0.0026,0.273409 -0.264119,1.49e-4 -6.65e-4,0.265133 -0.275164,-0.004 0.0039,5.077239 0.274394,-0.0035 -3.8e-5,0.266014 0.258145,-0.0018 0.0039,0.269543 6.404967,6.37e-4 -0.0035,-0.260087 0.267288,-0.01195 0.01704,-0.261497 0.255411,0.004 -0.0015,-5.081864 -0.260019,0.0049 -0.0041,-0.267126 -0.265291,0.0047 -0.008,-0.27755 z"
     style=""
     sodipodi:nodetypes="ccccccccccccccccccccc"
     class="LAB" />
  <path
     id="OFFICE_WORK"
     d="m 55.725546,18.406247 -0.265625,-0.005 -0.0031,-5.605954 0.277803,-0.0042 -0.0044,-0.262535 5.875074,0.0076 0.01233,0.255059 0.256503,0.0032 -0.0018,5.604301 -0.265719,-1.82e-4 6.19e-4,0.278397 -5.880601,-0.003 z"
     style=""
     sodipodi:nodetypes="ccccccccccccc"
     class="OFFICE_WORK" />
  <path
     id="CONSULTATION_ROOM"
     d="m 44.540612,18.402091 -0.0065,-4.538753 -0.261937,0.0039 -0.0045,-0.273071 -5.33826,0.0015 3.21e-4,0.268428 -0.264377,0.0034 -0.0036,4.531514 0.266067,0.0076 0.0037,0.26788 5.334323,0.002 0.0074,-0.266876 z"
     style=""
     sodipodi:nodetypes="ccccccccccccc"
     class="CONSULTATION" />
  <g
     id="g11"
     inkscape:label="text">
    <text
       style="font-size:2.27101px"
       id="text1"
       inkscape:label="RECEPTION"
       y="53.800423"
       x="-9.6072531"
       transform="rotate(-43.20236)"
       class="RECEPTION"><tspan
         sodipodi:role="line"
         id="tspan1"
         x="0"
         y="0">Reception</tspan></text>
    <text
       style="font-size:1.69827px"
       x="0.3546485"
       y="57.453499"
       id="text2"
       transform="rotate(-43.09932)"
       inkscape:label="CLOSET"
       class="MEASUREMENT_CLOSET"><tspan
         sodipodi:role="line"
         id="tspan2"
         x="0.3546485"
         y="57.453499">Closet</tspan></text>
    <text
       style="font-size:1.90883px"
       x="-3.9887943"
       y="46.957668"
       id="text3"
       transform="rotate(-32.854682)"
       inkscape:label="PHARMACY_1"
       class="PHARMACY_1"><tspan
         sodipodi:role="line"
         id="tspan3"
         x="-3.9887943"
         y="46.957668">Pharm</tspan></text>
    <text
       style="font-size:3.20159px"
       x="0.38754654"
       y="41.102806"
       id="text5"
       transform="rotate(-34.128542)"
       inkscape:label="LAB"
       class="LAB"><tspan
         sodipodi:role="line"
         id="tspan5"
         x="0.38754654"
         y="41.102806">Lab</tspan></text>
    <text
       style="font-size:4.23517px"
       x="28.137169"
       y="22.409613"
       id="text4"
       inkscape:label="HALLWAY_4"
       transform="matrix(0.90678297,0,0,0.95386974,0.64329399,3.1305701)"
       class="HALLWAY_4 "><tspan
         sodipodi:role="line"
         id="tspan4"
         x="28.137169"
         y="22.409613">Hallway</tspan></text>
    <text
       style="font-size:1.88459px"
       x="33.911911"
       y="49.124802"
       id="text7"
       transform="rotate(-38.161503)"
       inkscape:label="OFFICE_WORK"
       class="OFFICE_WORK"><tspan
         sodipodi:role="line"
         id="tspan7"
         x="33.911911"
         y="49.124802">Office</tspan></text>
    <text
       style="font-size:1.87163px"
       x="5.5276318"
       y="51.621925"
       id="text6"
       transform="rotate(-44.118482)"
       inkscape:label="PHARMACY_2"
       class="PHARMACY_2"><tspan
         sodipodi:role="line"
         id="tspan6"
         x="5.5276318"
         y="51.621925">Pharm</tspan></text>
    <text
       style="font-size:1.05771px"
       x="21.956957"
       y="37.248199"
       id="text8"
       transform="rotate(-34.627185)"
       inkscape:label="CONSULTATION"
       class="CONSULTATION"><tspan
         sodipodi:role="line"
         id="tspan8"
         x="21.956957"
         y="37.248199">Consultation</tspan></text>
  </g>
</svg>
